<svg width="111" height="111" fill="none" xmlns="http://www.w3.org/2000/svg">
            <g clipPath="url(#a)" opacity=".07">
                <path fillRule="evenodd" clipRule="evenodd" d="m21.97 43.513 3.97-.488L81.523 36.2l3.97-.487.386 3.139c.274 2.232 1.613 4.169 2.918 6.056.285.413.57.823.84 1.234.906 1.374 1.545 3.077 1.776 4.964.232 1.887.024 3.694-.522 5.247-.164.463-.34.93-.517 1.4-.81 2.147-1.64 4.35-1.366 6.583l.385 3.138-3.97.488-55.583 6.825-3.97.487-.385-3.139c-.274-2.232-1.614-4.169-2.919-6.056-.285-.413-.57-.823-.84-1.234-.906-1.375-1.544-3.078-1.776-4.964-.232-1.887-.024-3.694.523-5.247.163-.464.339-.93.516-1.4.81-2.147 1.64-4.35 1.367-6.583l-.386-3.139z" fill="#6E6C63"/>
            </g>
            <defs><clipPath id="a"><path transform="rotate(-7 18 44)" fill="#fff" d="M18 44h72v32H18z"/></clipPath></defs>
        </svg>